<?xml version="1.0" encoding="utf-8" ?>
<svg xmlns="http://www.w3.org/2000/svg" xmlns:xlink="http://www.w3.org/1999/xlink" width="333" height="333">
	<defs>
		<linearGradient id="gradient_0" gradientUnits="userSpaceOnUse" x1="257.29086" y1="88.594536" x2="304.17328" y2="40.056522">
			<stop offset="0" stop-color="#46ABFE"/>
			<stop offset="1" stop-color="#31C4FC"/>
		</linearGradient>
	</defs>
	<path fill="url(#gradient_0)" d="M204.437 22.0073L246.865 21.9914C254.639 22.002 262.767 21.5452 270.491 22.3978Q273.864 22.7435 277.165 23.5138Q280.467 24.284 283.644 25.4664C286.605 26.6823 289.443 28.1254 292.231 29.6956C302.003 35.9513 309.319 43.9268 313.877 54.6758C314.901 57.0901 315.898 59.5884 316.458 62.1571C318.515 71.5791 318.062 80.9751 318.101 90.558L318.109 123.606L318.147 137.305C318.158 139.733 318.338 142.355 318.042 144.762C317.803 145.459 317.889 146.364 317.876 147.101L317.658 147.132C316.424 142.534 317.029 137.217 316.796 132.514C316.777 132.14 316.846 131.81 316.556 131.55Q316.301 132.157 316.016 132.75C315.532 132.356 315.759 130.547 315.512 129.797C315.019 128.301 314.022 128.878 312.961 128.901C312.237 128.916 311.321 127.93 310.83 127.462C307.873 124.641 305.93 125.972 303.556 124.015C300.331 121.356 298.771 116.938 295.149 114.81C292.988 113.54 290.155 113.926 287.98 112.703C285.151 111.113 286.03 106.487 285.168 103.751C283.348 97.9802 278.881 99.8759 274.811 98.2092C271.717 96.9425 268.911 94.0035 266.866 91.4139C264.807 88.808 263.436 85.6625 261.489 82.9642C260.951 82.2195 260.013 81.8952 259.518 81.0757C258.552 79.4738 258.19 77.4982 257.172 75.8898C256.93 75.5079 256.663 75.1364 256.338 74.8209C255.385 73.8962 254.192 73.2044 253.197 72.3191C251.699 70.9879 250.543 69.2642 248.902 68.0879C244.844 65.1804 241.668 67.8959 236.222 61.9625C234.614 60.2107 233.813 57.8299 232.78 55.7224C230.16 50.3753 226.569 43.7339 221.665 40.1404C219.519 38.5679 216.022 38.1768 215.726 37.9732C213.411 36.3796 208.18 27.5773 206.33 26.6744C206.253 26.6368 206.175 26.601 206.098 26.5643C205.73 25.6808 206.928 25.2213 206.663 24.2383C205.997 23.8263 205.864 23.8761 205.069 23.928L204.738 23.6353L204.946 23.0056C204.731 22.6931 204.594 22.3517 204.437 22.0073Z"/>
	<defs>
		<linearGradient id="gradient_1" gradientUnits="userSpaceOnUse" x1="44.366188" y1="295.62964" x2="262.7442" y2="77.04348">
			<stop offset="0" stop-color="#A836FD"/>
			<stop offset="1" stop-color="#43AFFE"/>
		</linearGradient>
	</defs>
	<path fill="url(#gradient_1)" d="M25.5093 265.772C24.8853 260.589 25.1067 255.17 25.0836 249.949L25.0841 220.95L25.1082 115.946L25.1518 89.3627C25.1629 83.9833 24.9801 78.5103 25.3744 73.1466C26.3694 59.6106 31.3677 47.2706 41.0391 37.601C47.8143 30.8271 56.638 25.7509 65.9942 23.5912C73.6898 21.8148 81.5204 22.1656 89.3584 22.1305L114.206 22.1027L204.437 22.0073C204.594 22.3517 204.731 22.6931 204.946 23.0056L204.738 23.6353L205.069 23.928C205.864 23.8761 205.997 23.8263 206.663 24.2383C206.928 25.2213 205.73 25.6808 206.098 26.5643C206.175 26.601 206.253 26.6368 206.33 26.6744C208.18 27.5773 213.411 36.3796 215.726 37.9732C216.022 38.1768 219.519 38.5679 221.665 40.1404C226.569 43.7339 230.16 50.3753 232.78 55.7224C233.813 57.8299 234.614 60.2107 236.222 61.9625C241.668 67.8959 244.844 65.1804 248.902 68.0879C250.543 69.2642 251.699 70.9879 253.197 72.3191C254.192 73.2044 255.385 73.8962 256.338 74.8209C256.663 75.1364 256.93 75.5079 257.172 75.8898C258.19 77.4982 258.552 79.4738 259.518 81.0757C260.013 81.8952 260.951 82.2195 261.489 82.9642C263.436 85.6625 264.807 88.808 266.866 91.4139C268.911 94.0035 271.717 96.9425 274.811 98.2092C278.881 99.8759 283.348 97.9802 285.168 103.751C286.03 106.487 285.151 111.113 287.98 112.703C290.155 113.926 292.988 113.54 295.149 114.81C298.771 116.938 300.331 121.356 303.556 124.015C305.93 125.972 307.873 124.641 310.83 127.462C311.321 127.93 312.237 128.916 312.961 128.901C314.022 128.878 315.019 128.301 315.512 129.797C315.759 130.547 315.532 132.356 316.016 132.75Q316.301 132.157 316.556 131.55C316.846 131.81 316.777 132.14 316.796 132.514C317.029 137.217 316.424 142.534 317.658 147.132L317.876 147.101C317.889 146.364 317.803 145.459 318.042 144.762C318.654 149.819 318.116 155.393 318.123 160.494Q318.279 178.016 318.102 195.537L318.048 243.607C318.029 252.03 318.704 262.6 317.202 270.762C315.525 279.869 311.599 287.905 305.887 295.163C297.92 305.285 284.813 312.537 272.034 314.042C262.262 315.194 251.939 314.558 242.089 314.55L190.879 314.549L123.709 314.613Q109.435 314.677 95.162 314.547C88.585 314.511 81.9759 314.606 75.4109 314.201C71.0151 313.929 63.3705 313.066 59.562 310.786C55.1157 309.466 50.3376 306.425 46.6494 303.656C38.9055 297.843 33.239 290.447 29.5157 281.535C28.5552 279.236 27.5653 276.898 27.2098 274.417C26.0024 272.029 25.7138 268.417 25.5093 265.772Z"/>
	<path fill="#FAEAF5" d="M105.793 219.148C105.799 218.939 105.832 218.745 105.877 218.541C106.143 217.353 106.953 216.861 107.905 216.248C108.375 218.109 107.193 218.35 106.959 219.942L106.761 220.282C106.522 219.793 106.187 219.506 105.793 219.148Z"/>
	<path fill="#FAEAF5" d="M185.678 222.071C187.135 221.984 188.695 221.721 189.991 222.542L190.066 222.987C188.94 223.944 187.205 223.654 185.831 223.554C185.78 223.55 185.729 223.545 185.678 223.541C185.517 223.245 185.412 222.951 185.297 222.636L185.678 222.071Z"/>
	<path fill="#E6DCF9" d="M137.309 225.439C137.383 224.84 137.497 224.481 137.803 223.959L141.354 224.119C141.588 224.566 141.817 224.966 141.905 225.469C140.239 225.874 138.969 225.864 137.309 225.439Z"/>
	<path fill="#FAFBFB" d="M176.628 220.69C177.188 219.149 177.57 217.302 179.008 216.367C179.591 216.293 179.661 216.195 180.147 216.563L180.142 217.124C179.664 217.815 179.27 218.428 178.988 219.23L178.803 219.367C178.225 219.717 178.225 219.926 177.973 220.535L176.628 220.69Z"/>
	<path fill="#E6DCF9" d="M223.057 225.466C223.279 224.651 223.538 223.845 223.783 223.038C224.161 223.688 224.517 223.888 225.245 224.062C225.844 224.206 226.564 224.207 227.177 224.189C227.656 224.749 227.586 225.029 227.65 225.749C226.107 225.741 224.576 225.775 223.057 225.466Z"/>
	<path fill="#FBE2FA" d="M154.457 227.212C154.665 227.595 154.821 227.987 155.211 228.215L155.143 227.202L155.709 227.291C155.691 227.86 155.802 228.224 155.35 228.642C154.25 229.66 151.649 229.575 150.266 229.454C149.764 229.41 149.243 229.277 148.744 229.328C149.337 229.008 149.706 228.64 150.161 228.147C152.12 228.087 152.837 228.571 154.457 227.212Z"/>
	<path fill="#FFFCDD" d="M192.429 192.525C192.592 193.929 190.944 194.515 191.767 195.493C191.212 197.055 189.239 198.046 187.898 198.892C187.203 198.361 186.685 197.666 186.132 196.994C189.535 196.465 190.408 195.036 192.429 192.525Z"/>
	<path fill="#E6DCF9" d="M183.938 229.027C186.226 227.879 184.557 225.704 185.407 223.774C185.457 225.24 185.471 226.718 185.587 228.18C187.375 228.045 189.213 227.876 190.941 228.453L191.396 228.92L191.28 229.284C189.891 229.665 185.378 230.106 184.054 229.429C183.994 229.399 183.944 229.353 183.889 229.315L183.938 229.027Z"/>
	<path fill="#E6DCF9" d="M154.457 227.212C154.252 226.239 154.214 224.843 153.465 224.222L151.669 224.185C151.369 223.708 151.404 223.707 151.491 223.144C152.571 222.351 154.398 222.664 155.718 222.527C155.718 224.112 155.755 225.707 155.709 227.291L155.143 227.202L155.211 228.215C154.821 227.987 154.665 227.595 154.457 227.212Z"/>
	<path fill="#E6DCF9" d="M172.357 219.764C172.881 221.023 173.939 225.021 174.875 225.633L175.17 225.537L175.939 226.282C175.746 226.736 175.558 227.154 175.266 227.554C175.006 227.912 174.962 227.858 174.518 227.931C172.896 226.827 172.1 222.524 171.506 220.617L172.357 219.764Z"/>
	<path fill="#FFFCDD" d="M153.714 196.894C155.655 195.886 156.885 194.711 158.285 193.039C158.445 193.598 158.52 194.165 159.01 194.53C158.247 195.665 157.311 196.572 156.291 197.477C155.266 198.15 154.309 198.806 153.136 199.188C153.159 199.134 153.187 199.082 153.205 199.027C153.403 198.421 153.494 198.128 153.246 197.546C152.846 197.464 152.562 197.395 152.217 197.167C152.125 197.106 152.035 197.042 151.944 196.98L153.714 196.894Z"/>
	<path fill="#E6DCF9" d="M159.067 229.512C159.252 229.432 159.423 229.362 159.585 229.24C160.732 228.379 160.134 225.076 160.353 223.683C160.365 223.611 160.378 223.54 160.391 223.468C160.547 225.04 160.527 226.61 160.525 228.188C162.328 227.908 164.895 227.481 166.471 228.625L166.502 229.045C165.113 230.04 161.389 230.04 159.705 229.745C159.473 229.705 159.261 229.647 159.067 229.512Z"/>
	<path fill="#A637FB" d="M25.5093 265.772L25.9399 264.574L26.3093 264.497L26.4998 263.34L26.8362 263.264C27.7272 264.636 26.3317 269.986 27.2298 270.259L27.9939 270.073C28.4083 270.676 28.5894 271.871 28.403 272.62C28.2671 273.165 27.8984 273.735 27.627 274.226L27.2098 274.417C26.0024 272.029 25.7138 268.417 25.5093 265.772Z"/>
	<path fill="#7C70EE" d="M177.973 220.535C178.225 219.926 178.225 219.717 178.803 219.367C178.406 222.079 178.506 224.857 178.513 227.592C177.792 226.831 177.273 226.304 176.271 225.928L175.939 226.282L175.17 225.537C175.588 223.886 176.013 222.281 176.628 220.69L177.973 220.535Z"/>
	<path fill="#E6DCF9" d="M176.628 220.69L177.973 220.535C177.444 222.349 176.908 224.148 176.271 225.928L175.939 226.282L175.17 225.537C175.588 223.886 176.013 222.281 176.628 220.69Z"/>
	<path fill="#FBE2FA" d="M123.221 218.457L123.4 220.758C123.697 220.16 123.965 219.451 124.451 218.983L124.85 219.043C123.758 221.254 125.979 227.583 124.103 229.911L123.709 229.874C122.581 227.97 122.804 220.831 123.221 218.457Z"/>
	<path fill="#FAFBFB" d="M178.803 219.367L178.988 219.23C179.27 218.428 179.664 217.815 180.142 217.124C180.242 220.907 180.995 225.776 179.57 229.325L179.163 229.685C178.744 229.378 178.682 229.008 178.587 228.495C178.532 228.201 178.525 227.89 178.513 227.592C178.506 224.857 178.406 222.079 178.803 219.367Z"/>
	<path fill="#FBE2FA" d="M105.793 219.148C106.187 219.506 106.522 219.793 106.761 220.282C106.138 222.006 104.955 226.868 103.431 227.717C102.741 227.514 102.362 226.95 102.032 226.339C101.409 225.184 101.001 223.823 100.555 222.59C101.055 222.011 101.236 221.584 101.398 220.839C101.757 221.964 102.224 223.821 102.948 224.732C103.181 225.025 103.199 224.993 103.568 225.035C104.692 223.806 105.256 220.775 105.793 219.148Z"/>
	<path fill="#FBE2FA" d="M130.818 227.029C130.937 223.652 129.823 218.85 131.813 215.983L132.209 215.814C132.821 217.025 132.506 226.57 132.41 228.489L130.818 227.029Z"/>
	<path fill="#FBE2FA" d="M140.829 217.57C141.705 219.71 145.083 227.931 144.56 229.79C143.717 229.62 143.856 229.959 143.287 229.115C142.566 228.044 142.087 226.747 141.905 225.469C141.817 224.966 141.588 224.566 141.354 224.119C140.646 222.35 140.258 220.264 139.756 218.415L139.692 218.136L140.829 217.57Z"/>
	<path fill="#FAFBFB" d="M244.407 216.303L245.143 216.519C245.285 216.686 245.396 216.819 245.475 217.027C246.295 219.191 245.967 227.532 245.179 229.675L244.437 229.604C244.374 229.516 244.279 229.399 244.233 229.293C243.611 227.874 243.891 217.767 244.407 216.303Z"/>
	<path fill="#FBE2FA" d="M107.905 216.248L108.39 215.926C109.135 216.888 108.993 226.652 108.8 228.343C108.729 228.963 108.674 229.207 108.26 229.659C107.819 229.527 107.658 229.524 107.405 229.105C105.961 226.71 107.818 222.332 106.959 219.942C107.193 218.35 108.375 218.109 107.905 216.248Z"/>
	<path fill="#FAFBFB" d="M190.402 171.285C191.194 171.21 192.145 171.086 192.926 171.231C193.603 171.357 194.007 171.859 194.403 172.377C194.459 172.656 194.591 173.012 194.525 173.288C194.22 174.575 193.323 175.117 192.273 175.757C191.748 175.925 191.244 175.992 190.69 175.987C190.069 175.981 189.402 175.781 188.99 175.289C188.644 174.874 188.566 174.366 188.616 173.842C188.727 172.659 189.571 172.012 190.402 171.285Z"/>
	<path fill="#FAFBFB" d="M157.868 170.703C158.338 170.771 158.734 170.941 159.165 171.134C159.864 171.448 160.443 171.731 160.691 172.514C160.851 173.02 160.748 173.537 160.514 174.001C159.858 175.301 158.838 175.589 157.545 175.977Q157.167 175.995 156.788 175.999C155.934 176.006 155.381 175.912 154.756 175.295C154.588 174.791 154.483 174.58 154.62 174.045C155.035 172.426 156.535 171.5 157.868 170.703Z"/>
	<path fill="#FAFBFB" d="M219.134 171.001C219.705 171 220.377 170.948 220.925 171.123C221.449 171.289 221.91 171.683 222.103 172.211C222.319 172.802 222.165 173.451 221.88 173.989C221.251 175.175 220.465 175.627 219.256 176.035C218.069 176.032 217.194 175.983 216.278 175.129C216.005 174.477 215.846 174.16 216.088 173.443C216.561 172.037 217.884 171.504 219.134 171.001Z"/>
	<path fill="#FAEAF5" d="M123.221 218.457C123.365 217.392 123.519 216.335 123.72 215.279C125.899 217.926 127.47 221.002 129.127 223.989C129.634 224.904 130.143 226.276 130.818 227.029L132.41 228.489C132.367 228.83 132.337 229.042 132.154 229.344C131.965 229.655 131.789 229.613 131.458 229.707C129.584 228.834 125.816 221.148 124.85 219.043L124.451 218.983C123.965 219.451 123.697 220.16 123.4 220.758L123.221 218.457Z"/>
	<path fill="#FAEAF5" d="M99.3452 218.305C99.2853 221.523 100.282 225.813 99.2994 228.88C99.1276 229.417 98.8216 229.668 98.3397 229.916L98.0606 229.511C97.8183 227.015 97.1401 218.611 98.1467 216.683C98.3436 216.305 98.3849 216.378 98.7542 216.258C100.25 217.138 100.804 219.299 101.398 220.839C101.236 221.584 101.055 222.011 100.555 222.59C100.089 221.189 99.7412 219.729 99.3452 218.305Z"/>
	<path fill="#E6DCF9" d="M171.506 220.617C170.524 223.218 171.907 227.327 170.34 229.677L169.911 229.742C169.757 229.599 169.639 229.49 169.549 229.295C168.799 227.671 168.779 218.964 169.404 217.222C169.673 216.471 169.79 216.353 170.472 216.04L170.373 216.432L170.653 216.097C172.052 217.001 171.985 218.289 172.357 219.764L171.506 220.617Z"/>
	<path fill="#7689E6" d="M159.719 99.6907C160.384 105.416 160.056 111.269 160.157 117.025C160.251 122.446 160.4 127.837 160.383 133.263C160.375 136.031 160.521 138.954 159.991 141.677L159.654 142.086C158.976 138.549 159.482 127.079 159.493 122.715L159.532 108.157C159.538 105.376 159.36 102.449 159.719 99.6907Z"/>
	<path fill="#FAEAF5" d="M183.496 216.466C185.562 216.327 189.011 215.845 190.913 216.625C191.351 216.804 191.461 216.852 191.627 217.279C190.26 218.245 187.113 217.953 185.468 217.976C185.438 219.094 185.098 221.179 185.678 222.071L185.297 222.636C185.412 222.951 185.517 223.245 185.678 223.541L185.407 223.774C184.557 225.704 186.226 227.879 183.938 229.027C183.172 225.047 183.713 220.538 183.496 216.466Z"/>
	<path fill="#FAEAF5" d="M148.744 229.328C148.352 229.061 148.07 228.787 147.78 228.415C146.252 226.453 145.491 224.112 145.856 221.623C146.106 219.916 146.936 218.28 148.347 217.249C149.652 216.295 151.217 216.039 152.786 216.287C153.719 216.435 154.915 216.713 155.475 217.479C155.46 218.107 155.518 218.234 155.12 218.745C153.725 218.869 152.701 217.606 151.19 217.811C150.131 217.955 149.162 218.603 148.556 219.471C147.545 220.919 147.412 222.931 147.766 224.615C148.076 226.092 148.667 227.18 149.955 228.015L150.161 228.147C149.706 228.64 149.337 229.008 148.744 229.328Z"/>
	<path fill="#FAEAF5" d="M137.309 225.439C136.822 226.87 136.398 228.643 135.189 229.637L134.909 229.392C134.626 226.696 136.859 220.362 138.095 217.901C138.508 217.081 138.847 216.633 139.723 216.35C140.426 216.669 140.458 216.912 140.829 217.57L139.692 218.136L139.756 218.415C140.258 220.264 140.646 222.35 141.354 224.119L137.803 223.959C137.497 224.481 137.383 224.84 137.309 225.439Z"/>
	<path fill="#7C70EE" d="M137.803 223.959C138.25 222.362 138.502 219.509 139.756 218.415C140.258 220.264 140.646 222.35 141.354 224.119L137.803 223.959Z"/>
	<path fill="#FAFBFB" d="M205.641 216.524C208.231 216.441 213.48 215.734 215.561 217.215L215.373 217.555C214.137 218.114 212.802 217.999 211.477 217.978C211.634 220.822 211.518 223.711 211.501 226.56C211.416 227.802 211.437 228.993 210.577 229.981L210.256 229.778C209.314 226.982 209.792 221.1 209.778 217.997C208.791 218.025 206.985 218.272 206.161 217.708C205.656 217.361 205.727 217.078 205.641 216.524Z"/>
	<path fill="#FAEAF5" d="M158.815 216.35C161.201 216.418 164.351 216.002 166.594 216.592L166.891 217.125L166.732 217.485C165.155 218.403 162.296 217.998 160.504 217.953L160.509 222.047C161.616 221.992 162.988 221.819 164.068 222.116C164.58 222.256 165.153 222.364 165.416 222.835C164.207 223.909 161.907 223.53 160.391 223.468C160.378 223.54 160.365 223.611 160.353 223.683C160.134 225.076 160.732 228.379 159.585 229.24C159.423 229.362 159.252 229.432 159.067 229.512C158.253 226.967 158.775 219.499 158.815 216.35Z"/>
	<path fill="#7689E6" d="M175.259 102.174C176.448 108 175.288 114.753 175.807 120.772L175.95 120.386C175.935 120.598 175.96 120.956 175.89 121.146Q176.048 118.158 176.098 115.167C176.66 117.268 176.667 145.409 176.079 146.508L175.989 145.751C175.903 146.697 175.751 152.699 175.579 152.829C174.568 153.597 171.381 153.124 170.167 152.866C169.913 152.812 169.691 152.73 169.459 152.615L175.18 152.757C175.311 135.897 175.052 119.032 175.259 102.174Z"/>
	<path fill="#FAFBFB" d="M223.057 225.466C222.601 226.802 222.087 229.02 220.936 229.899L220.556 229.85C220.136 228.958 220.304 228.263 220.623 227.372C221.41 225.172 222.224 223.007 222.934 220.777C223.311 219.595 223.532 218.113 224.067 217.018C224.346 216.445 224.449 216.342 224.988 216.001C226 216.355 226.402 217.102 226.842 218.034C227.918 220.312 230.434 227.099 229.937 229.39C229.892 229.594 229.845 229.637 229.741 229.787C228.502 228.99 228.065 227.078 227.65 225.749C227.586 225.029 227.656 224.749 227.177 224.189C226.564 224.207 225.844 224.206 225.245 224.062C224.517 223.888 224.161 223.688 223.783 223.038C223.538 223.845 223.279 224.651 223.057 225.466Z"/>
	<path fill="#7689E6" d="M225.462 217.662C225.946 219.687 226.273 222.345 227.177 224.189C226.564 224.207 225.844 224.206 225.245 224.062C224.517 223.888 224.161 223.688 223.783 223.038C224.223 221.189 224.813 219.445 225.462 217.662Z"/>
	<path fill="#FBE2FA" d="M114.871 217.023L115.666 216.117C116.247 216.189 116.413 216.37 116.766 216.856C118.231 218.876 120.806 226.715 120.485 229.124C120.454 229.362 120.429 229.398 120.353 229.592L119.984 229.579C119.055 228.378 118.777 227.16 118.349 225.731C116.648 225.531 115.145 225.626 113.455 225.813C112.973 226.789 112.936 227.918 112.48 228.9C112.246 229.404 112.24 229.512 111.73 229.711C111.444 229.431 111.342 229.347 111.232 228.96C110.807 227.461 113.959 218.592 114.871 217.023Z"/>
	<path fill="#7C70EE" d="M115.668 218.32C116.712 219.545 117.32 222.265 117.54 223.849L117.405 224.2C116.151 224.036 115.158 223.954 113.925 224.274C114.622 222.33 115.12 220.31 115.668 218.32Z"/>
	<path fill="#FAFBFB" d="M195.963 219.499C195.962 222.818 196.218 226.389 195.349 229.61L194.706 229.743L195.324 229.651L194.654 229.628C193.977 227.275 193.513 219.517 194.328 217.201C194.511 216.679 194.577 216.634 195.061 216.387C197.43 217.174 200.31 224.598 201.618 226.889L201.717 227.059C201.849 224.24 201.417 218.559 202.489 216.149L202.842 216.012C203.166 216.368 203.347 216.638 203.44 217.118C203.746 218.71 203.665 225.04 203.594 226.979C203.566 227.744 203.443 228.445 203.075 229.127C202.46 229.438 202.434 229.368 201.797 229.206C201.271 228.755 201.103 228.406 200.906 227.747C199.007 225.245 197.431 222.274 195.963 219.499Z"/>
	<path fill="#FAFBFB" d="M232.299 216.516C234.473 216.458 238.122 216.031 239.973 217.291C240.701 217.787 241.107 218.543 241.266 219.398C241.452 220.403 241.394 221.722 240.79 222.58C239.768 224.032 237.199 224.194 235.575 224.51L234.514 224.587C233.404 225.74 234.229 227.75 233.92 229.182C233.828 229.607 233.722 229.59 233.354 229.83L232.968 229.7C231.731 227.324 232.817 219.957 232.34 216.773L232.299 216.516Z"/>
	<path fill="#7689E6" d="M234.464 217.798C236.018 217.765 237.659 217.758 238.983 218.693C239.407 218.992 239.685 219.416 239.741 219.93C239.845 220.885 239.36 221.901 238.761 222.611L238.617 222.641C237.123 222.966 235.724 223.004 234.206 223.016C234.088 221.339 233.978 219.426 234.464 217.798Z"/>
	<path fill="#FAFBFB" d="M158.285 193.039C159.68 191.032 159.925 189.476 160.257 187.086C160.321 186.627 160.324 185.901 160.495 185.481C160.663 185.067 160.838 184.967 161.256 184.839C161.969 184.622 162.645 184.821 163.277 185.157C164.486 187.048 163.105 194.091 164.211 197.744C166.764 196.225 168.341 193.919 169.978 191.525L170.588 192.13L170.508 193.002L170.796 193.054C169.374 195.462 166.966 198.846 164.088 199.591C163.338 199.785 162.583 199.73 161.922 199.304C160.26 198.235 159.934 194.236 159.452 194.166L159.01 194.53C158.52 194.165 158.445 193.598 158.285 193.039Z"/>
	<path fill="#FAFBFB" d="M151.524 181.831C152.374 181.003 152.856 180.439 154.122 180.454C154.689 180.46 154.834 180.556 155.316 180.818C155.664 181.628 155.452 182.282 155.131 183.062C153.759 186.403 149.171 192.032 150.741 195.728C150.973 196.272 151.476 196.648 151.944 196.98C152.035 197.042 152.125 197.106 152.217 197.167C152.562 197.395 152.846 197.464 153.246 197.546C153.494 198.128 153.403 198.421 153.205 199.027C153.187 199.082 153.159 199.134 153.136 199.188C151.757 199.452 149.776 199.719 148.523 198.936C147.459 198.271 146.876 196.222 146.589 195.062L146.514 194.751L146.004 194.758C145.49 194.653 145.323 194.522 144.952 194.18C147.869 190.8 148.426 185.929 151.524 181.831Z"/>
	<path fill="#FAFBFB" d="M206.011 111.649L206.286 111.618C206.917 112.379 206.561 127.47 206.583 129.815Q203.31 129.83 200.037 129.786C199.074 128.751 199.507 113.81 199.511 111.725C201.679 111.772 203.845 111.702 206.011 111.649Z"/>
	<path fill="#FAFBFB" d="M136.771 111.754C139.187 111.718 141.608 111.76 144.025 111.772C143.861 117.773 144.057 123.797 143.974 129.803Q140.457 129.799 136.942 129.695C136.957 123.773 137.26 117.648 136.771 111.754Z"/>
	<path fill="#FAFBFB" d="M169.978 191.525C171.364 189.235 172.285 187.038 172.965 184.447C173.214 183.498 173.343 182.375 173.701 181.472C173.86 181.069 174.08 180.894 174.484 180.788C175.074 180.635 175.856 180.702 176.396 181.009C176.945 181.322 177.381 182.139 177.507 182.737C177.947 184.841 173.687 190.527 176.855 192.713C177.545 193.189 178.451 193.086 179.22 192.903C179.706 192.788 180.066 192.305 180.307 191.894C181.902 189.171 184.099 181.079 187.197 180.312C187.799 180.163 188.245 180.322 188.753 180.635C189.171 181.441 189.241 181.901 188.96 182.819C187.9 186.269 182.74 192.314 184.666 195.926C184.998 196.548 185.499 196.761 186.132 196.994C186.685 197.666 187.203 198.361 187.898 198.892C186.154 199.5 184.189 199.297 182.374 199.206C180.971 197.575 180.729 196.344 180.361 194.296C179.51 193.763 177.405 194.989 175.946 194.356C174.077 193.546 173.382 191.696 172.666 189.947Q171.708 191.487 170.796 193.054L170.508 193.002L170.588 192.13L169.978 191.525Z"/>
	<path fill="#FAFBFB" d="M152.505 99.7846Q156.112 99.7713 159.719 99.6907C159.36 102.449 159.538 105.376 159.532 108.157L159.493 122.715C159.482 127.079 158.976 138.549 159.654 142.086C157.314 141.91 154.887 142.025 152.537 142.013C153.014 137.851 152.577 133.183 152.575 128.96L152.505 99.7846Z"/>
	<path fill="#FAFBFB" d="M183.912 99.8459Q187.462 99.7247 191.014 99.7004Q190.884 120.906 190.968 142.109C188.643 142.126 186.306 142.036 183.981 141.996L183.912 99.8459Z"/>
	<path fill="#FAFBFB" d="M168.23 89.1303C170.581 88.9639 172.908 88.9698 175.264 89.0011Q175.143 95.5875 175.259 102.174C175.052 119.032 175.311 135.897 175.18 152.757L169.459 152.615L168.605 152.594C168.228 152.057 168.181 151.685 168.145 151.039C168.059 149.513 168.287 147.915 168.28 146.371L168.22 132.402L168.23 89.1303Z"/>
	<path fill="#A637FB" d="M27.2098 274.417L28.2913 275.067C28.647 274.878 28.487 275.028 28.671 274.664C28.882 274.247 29.2425 274.029 29.6194 273.777C30.2656 274.331 30.4636 276.164 31.3751 276.101C34.3907 275.893 33.7148 272.428 38.9307 276.639C42.4436 279.475 43.9705 282.803 49.1947 282.336L49.6572 283.062C51.1303 282.991 51.3749 284.328 52.0997 283.721C54.0217 286.065 54.3672 292.499 55.9213 295.615C57.2938 298.368 59.9618 299.45 60.7464 302.758C61.0517 304.046 61.7808 304.927 61.1533 306.285L60.7818 306.109C60.1301 306.357 59.7113 306.756 59.4299 307.406C59.2676 307.78 59.1903 308.198 59.1018 308.595C59.0828 308.68 59.0608 308.765 59.043 308.851C58.9711 309.198 58.9181 309.553 58.8586 309.903L59.562 310.786C55.1157 309.466 50.3376 306.425 46.6494 303.656C38.9055 297.843 33.239 290.447 29.5157 281.535C28.5552 279.236 27.5653 276.898 27.2098 274.417Z"/>
	<path fill="#FAFBFB" d="M192.429 192.525C194.205 190.182 194.71 186.292 195.445 183.455C195.053 182.374 193.409 182.794 194.033 181.278C194.661 181.089 195.19 181.071 195.844 181.074C198.356 179.955 201.641 166.336 206.367 166.963C206.867 167.615 207.021 168.034 206.93 168.9C206.603 171.998 202.356 178.354 200.671 181.305C202.818 181.303 208.693 180.726 210.343 181.67C210.206 182.124 210.069 182.181 209.643 182.415C207.519 183.576 202.34 183.31 199.814 183.306C198.103 186.177 196.421 192.002 197.219 195.355C197.377 196.019 197.703 196.715 198.298 197.093C199.205 197.67 200.342 197.467 201.318 197.196C204.133 196.414 206.349 194.372 207.752 191.851C209.329 189.019 211.387 181.476 214.747 180.546C215.425 180.358 215.899 180.379 216.538 180.653C216.936 181.206 217.015 181.391 216.897 182.082C216.211 186.09 212.292 188.417 212.016 193.938C211.98 194.648 211.955 195.497 212.376 196.106C212.68 196.546 213.161 196.803 213.684 196.873C215.024 197.054 216.576 196.243 217.561 195.388C220.158 193.138 220.849 189.616 222.513 186.754C224.525 183.291 229.249 178.939 233.539 179.117C234.554 179.16 235.661 179.556 236.372 180.302C237.121 181.088 237.145 182.292 237.284 183.32C235.993 186.956 233.642 189.297 230.179 190.977C228.731 191.679 224.777 192.576 224.006 193.539C224.036 194.674 224.695 196.186 225.494 197C226.184 197.702 226.999 198.007 227.978 197.985C231.089 197.913 234.556 195.361 236.533 193.129C237.414 192.134 238.19 191.05 239.111 190.092C242.058 187.026 244.116 185.335 245.661 181.251C246.188 179.86 246.759 177.562 248.372 177.16C248.787 177.402 248.951 177.441 249.12 177.914C249.565 179.16 249.51 180.958 249.78 182.303C250.648 186.626 252.339 190.276 252.253 194.801C255.63 193.323 256.785 190.919 258.997 188.21C257.394 193.083 255.962 193.652 252.079 196.597C250.779 197.582 249.558 198.824 248.098 199.566C246.298 200.48 243.962 200.785 242.031 200.116C239.425 199.214 238.358 196.916 237.265 194.6C234.22 197.682 230.828 200.064 226.299 200.139C224.712 200.165 223.199 199.724 222.034 198.606C221.065 197.678 220.539 196.492 220.177 195.222C216.322 198.79 215.078 199.41 209.742 199.228C208.816 197.736 208.02 196.281 207.434 194.618C205.353 196.798 203.039 198.695 200.402 200.175C198.817 200.233 195.976 200.619 194.751 199.444C193.639 198.379 193.638 195.857 192.317 195.128L191.767 195.493C190.944 194.515 192.592 193.929 192.429 192.525Z"/>
	<path fill="#7689E6" d="M240.346 192.584C240.763 192.706 241.171 192.856 241.548 193.074C242.582 193.672 246.933 196.017 247.134 196.816L246.536 197.69C245.713 198.104 245.065 198.35 244.12 198.258C242.999 198.149 242.054 197.558 241.367 196.682C240.373 195.412 240.183 194.135 240.346 192.584Z"/>
	<path fill="#7689E6" d="M246.215 184.218C246.275 184.285 246.349 184.342 246.394 184.419C247.275 185.916 248.132 192.543 247.914 194.293L247.501 194.559C246.51 194.41 245.704 193.845 244.852 193.346C243.565 192.655 242.586 191.467 241.606 190.409Q244.008 187.386 246.215 184.218Z"/>
	<path fill="#7689E6" d="M232.427 181.51C233.016 181.479 233.411 181.444 233.944 181.719C234.313 182.606 234.057 183.397 233.94 184.338Q233.253 185.326 232.435 186.21Q231.618 187.093 230.686 187.855Q229.754 188.617 228.726 189.243Q227.698 189.868 226.593 190.346C226.13 190.539 225.837 190.563 225.347 190.568L225.123 190.129C225.21 189.793 225.305 189.46 225.424 189.133C226.598 185.895 229.336 182.961 232.427 181.51Z"/>
	<path fill="#FAFBFB" d="M111.755 160.231C113.075 160.805 114.257 161.591 115.466 162.363C111.967 169.414 106.877 185.853 107.594 193.543C107.7 194.679 107.937 195.58 108.853 196.337C112.535 197.389 115.448 188.781 116.798 186.332Q117.689 184.724 118.998 183.432C120.845 181.628 122.974 181.41 125.174 180.324C125.956 179.8 126.55 179.754 127.501 179.949C129.033 180.265 130.351 181.269 131.913 181.497C133.032 181.339 134.105 181.231 135.236 181.232C136.709 177.692 140.37 168.645 144.069 167.149C144.536 166.96 144.706 166.971 145.2 167.053C145.681 167.795 145.729 168.302 145.544 169.192C144.74 173.064 141.268 177.997 139.251 181.507C141.271 181.307 147.644 180.636 149.317 181.331C149.617 182.052 149.565 182.11 149.348 182.87L148.784 183.414L149.007 183.896C150.071 183.659 150.206 182.077 151.524 181.831C148.426 185.929 147.869 190.8 144.952 194.18C145.323 194.522 145.49 194.653 146.004 194.758C144.354 196.775 142.432 198.014 140.272 199.407C140.236 199.435 140.201 199.465 140.164 199.492C138.618 200.626 135.805 200.157 134.057 199.934C132.295 198.116 131.752 196.859 131.654 194.346C129.115 197.236 126.468 199.367 122.637 200.328C120.893 200.766 118.986 200.849 117.401 199.87C115.584 198.748 115.063 197.049 114.594 195.079C113.048 196.581 111.324 197.854 109.597 199.137L105.71 198.966C105.303 198.577 104.886 198.179 104.551 197.725C102.054 194.349 103.1 188.95 103.572 185.077C101.162 184.57 98.7005 184.302 96.2587 183.988C94.5247 187.396 92.6755 190.757 91.0038 194.195C89.6715 196.935 88.5141 199.741 87.0974 202.443C86.4535 201.894 85.6412 201.273 85.2965 200.482C83.4317 196.208 90.504 187.538 92.2132 183.431C90.4619 183.779 87.3003 184.129 85.631 183.518C85.2462 183.376 85.2649 183.277 85.0887 182.911C85.5431 181.605 87.1209 180.791 88.2276 180.09C90.4189 180.005 92.5274 180.083 94.6815 180.518C99.7208 173.17 104.682 165.795 111.755 160.231Z"/>
	<path fill="#7C70EE" d="M108.987 165.732C108.886 166.898 108.219 168.356 107.858 169.494C106.566 173.569 104.771 177.978 104.371 182.254C102.575 181.764 100.734 181.426 98.9104 181.05C98.6793 181.049 98.4559 180.95 98.2361 180.881C98.6845 177.948 106.751 168.091 108.987 165.732Z"/>
	<path fill="#7C70EE" d="M149.317 181.331C149.617 182.052 149.565 182.11 149.348 182.87L148.784 183.414L149.007 183.896C150.071 183.659 150.206 182.077 151.524 181.831C148.426 185.929 147.869 190.8 144.952 194.18C145.323 194.522 145.49 194.653 146.004 194.758C144.354 196.775 142.432 198.014 140.272 199.407L140.436 198.665C140.895 198.18 141.227 197.942 141.862 197.732L141.665 198.07L141.873 197.577C140.62 197.181 139.635 198.135 138.38 197.82C138.329 197.807 138.28 197.79 138.231 197.775C138.001 197.751 137.802 197.701 137.588 197.612C136.789 197.282 136.3 196.817 135.989 196.002C134.595 192.359 137.08 186.632 138.521 183.222C141.01 183.231 146.055 183.603 148.27 182.774C149.011 182.497 149.063 182.002 149.317 181.331Z"/>
	<path fill="#FAEAF5" d="M138.231 197.775C140.895 196.975 142.769 195.839 144.952 194.18C145.323 194.522 145.49 194.653 146.004 194.758C144.354 196.775 142.432 198.014 140.272 199.407L140.436 198.665C140.895 198.18 141.227 197.942 141.862 197.732L141.665 198.07L141.873 197.577C140.62 197.181 139.635 198.135 138.38 197.82C138.329 197.807 138.28 197.79 138.231 197.775Z"/>
	<path fill="#7C70EE" d="M125.174 180.324C125.956 179.8 126.55 179.754 127.501 179.949C129.033 180.265 130.351 181.269 131.913 181.497C132.533 182.346 133.399 182.706 134.316 183.162C133.546 185.961 132.94 189.33 131.54 191.884C130.075 194.556 126.877 196.976 123.957 197.805C122.698 198.163 121.258 198.202 120.102 197.503C119.255 196.991 118.707 196.154 118.503 195.192C117.908 192.39 119.898 188.773 121.393 186.544C122.275 185.229 124.173 182.648 125.907 182.473C126.522 182.411 126.804 182.549 127.292 182.887C127.785 184.502 126.686 186.68 126.138 188.222L128.876 187.886C129.26 186.899 129.761 185.793 129.918 184.743C130.065 183.757 129.976 182.683 129.322 181.885C128.251 180.579 126.727 180.47 125.174 180.324Z"/>
</svg>
