<svg 
  xmlns="http://www.w3.org/2000/svg"
  width="400"
  height="400"
  fill="none"
  >
    <path fill="#292929" d="M400 200C400 89.543 310.457 0 200 0S0 89.543 0 200s89.543 200 200 200 200-89.543 200-200Z"/>
    <path fill="#F24822" d="M84.068 191.142c.588.588 1.294 1.705 2.117 3.352.94 1.646 1 3.117.176 4.41-.235.588-1.587 1.588-4.057 2.999-2.352 1.412-5.234 3.058-8.644 4.94a755.627 755.627 0 0 1-10.761 5.645 755.088 755.088 0 0 0-10.761 5.645 349.316 349.316 0 0 1 10.055 5.822 210.776 210.776 0 0 1 9.703 5.821c3.058 1.764 5.645 3.352 7.762 4.763 2.117 1.412 3.293 2.352 3.528 2.823.706 1.411.588 2.881-.353 4.41-.94 1.529-1.764 2.588-2.47 3.176-.352.352-1.587.176-3.704-.53-2.117-.705-4.705-1.646-7.762-2.822-3.058-1.294-6.41-2.705-10.056-4.234a929.15 929.15 0 0 1-10.055-4.763c-3.176-1.529-5.94-2.94-8.291-4.234-2.353-1.294-3.823-2.235-4.41-2.823-.824-.705-1.412-1.823-1.765-3.351a31.293 31.293 0 0 1-.353-4.764c0-1.646.118-3.116.353-4.41.353-1.411.706-2.234 1.059-2.47.705-.588 2.352-1.529 4.939-2.822 2.587-1.294 5.586-2.705 8.997-4.234a357.883 357.883 0 0 1 11.114-4.587c3.999-1.646 7.644-3.058 10.937-4.234 3.411-1.293 6.292-2.234 8.645-2.822 2.352-.706 3.704-.941 4.057-.706Zm29.284 17.818c0 1.529-.058 3.94-.176 7.233 0 3.293-.059 6.997-.177 11.113a535.047 535.047 0 0 1-.529 12.878c-.117 4.352-.353 8.351-.705 11.996-.353 3.529-.765 6.469-1.235 8.821-.353 2.352-.824 3.528-1.412 3.528-1.764 0-3.469-1.235-5.115-3.704a415.135 415.135 0 0 1-4.764-8.292c-.352-.705-.764-2.764-1.235-6.174-.352-3.528-.764-7.939-1.234-13.231-.353-5.292-.706-11.173-1.059-17.641-.353-6.469-.706-13.055-1.058-19.758-.353-6.704-.647-13.29-.882-19.758a3879.03 3879.03 0 0 0-.353-17.465c-.118-5.175-.118-9.467 0-12.878.117-3.528.353-5.586.706-6.174.47-.824 2.116-1.412 4.939-1.764 2.823-.471 6.233-.706 10.232-.706 4.116 0 8.526.117 13.231.353 4.704.235 9.055.588 13.054 1.058 4.116.353 7.527.765 10.232 1.235 2.823.47 4.41.882 4.763 1.235.471.47.529 1.764.177 3.881-.236 1.999-.706 4.234-1.412 6.704a40.869 40.869 0 0 1-2.293 6.703c-.823 2.117-1.529 3.47-2.117 4.058-.588.588-3.352.529-8.291-.177-4.822-.705-12.584-1.529-23.287-2.469v29.46c8.233.706 14.642 1.353 19.229 1.941 4.704.588 7.174.999 7.409 1.235.471.47.647 1.411.53 2.822-.118 1.411-.412 2.94-.882 4.587a28.753 28.753 0 0 1-1.765 4.41c-.705 1.294-1.411 2.176-2.116 2.646-.353.236-2.47.588-6.351 1.059-3.764.47-9.115.882-16.054 1.235Zm55.217-20.817c.235.588.353 2.47.353 5.645.117 3.058.117 6.822 0 11.291a305.4 305.4 0 0 1-.353 14.113 452.833 452.833 0 0 1-.882 14.112c-.235 4.352-.529 8.115-.882 11.291-.353 3.058-.706 4.88-1.059 5.469-1.058 1.646-2.646 2.704-4.763 3.175-2.117.353-3.645.412-4.586.176-.471 0-1-1.352-1.588-4.057-.47-2.705-.941-6.116-1.411-10.232a331.065 331.065 0 0 1-1.235-13.407 722.707 722.707 0 0 1-.882-13.76c-.235-4.469-.353-8.35-.353-11.643 0-3.293.118-5.41.353-6.351.353-1.529 1.352-2.882 2.999-4.058 1.764-1.176 3.587-2.058 5.468-2.646 2-.588 3.823-.823 5.469-.706 1.764 0 2.882.53 3.352 1.588Zm.882-28.578c.471.94.647 2.234.529 3.881 0 1.646-.176 3.351-.529 5.115a36.409 36.409 0 0 1-1.411 5.116c-.588 1.647-1.176 2.941-1.764 3.881-1.176 1.647-2.94 2.705-5.293 3.176-2.234.353-3.881.411-4.939.176-.823-.117-1.647-.647-2.47-1.587-.823-1.059-1.529-2.294-2.117-3.705-.588-1.529-1-3.175-1.235-4.94-.235-1.764-.176-3.41.177-4.939s1.47-2.881 3.352-4.058a19.978 19.978 0 0 1 5.997-2.822c2.117-.706 4.117-1 5.998-.882 1.882 0 3.117.529 3.705 1.588Zm78.15-19.229c.236.47.353 2.117.353 4.939.118 2.823.118 6.233 0 10.232 0 3.999-.117 8.291-.353 12.878a359.37 359.37 0 0 1-.882 12.702 916.723 916.723 0 0 1-2.47 26.461c-.94 8.703-1.881 16.524-2.822 23.463-.823 6.939-1.647 12.643-2.47 17.112-.705 4.351-1.117 6.762-1.235 7.233-.235.588-.764 1.47-1.587 2.646a69.296 69.296 0 0 1-2.647 3.528c-.94 1.059-1.881 2-2.822 2.823-.823.823-1.47 1.235-1.941 1.235-.941-.824-2.646-4.058-5.116-9.703-1.058-2.47-2.352-5.527-3.881-9.173-1.529-3.764-3.293-8.35-5.292-13.76a16162.29 16162.29 0 0 0-7.056-19.053 2577.314 2577.314 0 0 1-8.821-25.756c.706 9.644 1.294 18.112 1.764 25.403.471 7.292.823 13.643 1.059 19.053.352 5.41.588 9.996.705 13.76.118 3.646.177 6.704.177 9.173 0 5.645-.177 8.88-.53 9.703-1.176 0-2.469-.529-3.881-1.588a31.05 31.05 0 0 1-3.704-4.057 83.947 83.947 0 0 1-3.176-4.763c-.823-1.529-1.293-2.647-1.411-3.352-.118-.471-.47-2.646-1.058-6.527-.589-3.881-1.294-8.821-2.117-14.819a2199.144 2199.144 0 0 0-2.47-20.464 7342.076 7342.076 0 0 1-2.47-23.286 885.156 885.156 0 0 1-1.764-22.933c-.47-7.527-.706-14.231-.706-20.111 0-.941 1.176-2.176 3.529-3.705 2.352-1.646 4.998-3.175 7.938-4.587 3.058-1.529 5.88-2.822 8.468-3.881 2.587-1.176 4.175-1.764 4.763-1.764.47 0 .941 1.353 1.411 4.058.588 2.705 1.176 6.115 1.764 10.232.706 4.116 1.47 8.702 2.294 13.76.941 5.057 1.94 9.879 2.999 14.465.94 4.94 2.117 10.526 3.528 16.759a1322.734 1322.734 0 0 0 4.41 19.053 1476.404 1476.404 0 0 0 6.527 24.697v-20.287l.353-21.346c.118-7.056.235-13.819.353-20.287.235-6.586.412-12.408.529-17.465.235-5.057.412-9.114.529-12.172.236-3.058.412-4.704.53-4.94.353-.47 1.47-.588 3.352-.352 1.881.117 3.939.47 6.174 1.058 2.234.47 4.234 1.117 5.998 1.941 1.882.705 2.94 1.293 3.175 1.764Zm65.978-5.822c0 .471-.706 2.587-2.117 6.351-1.293 3.763-3.116 8.585-5.469 14.466-2.234 5.88-4.88 12.525-7.938 19.934-2.94 7.292-5.998 14.76-9.173 22.404a1430.267 1430.267 0 0 1-9.527 22.405 1245.023 1245.023 0 0 1-8.467 19.758 1380.787 1380.787 0 0 1-6.528 14.642c-1.764 3.763-2.94 5.88-3.528 6.351-1.882 1.764-3.763 2.822-5.645 3.175-1.882.235-3.293.235-4.234 0-.353-.118-.059-1.823.882-5.116.941-3.411 2.294-7.88 4.058-13.407a1073.982 1073.982 0 0 1 6.174-19.053c2.47-7.174 4.998-14.465 7.586-21.875a2355.926 2355.926 0 0 1 7.762-22.227c2.705-7.41 5.175-14.055 7.409-19.935 2.235-5.88 4.116-10.761 5.645-14.642 1.529-3.999 2.588-6.41 3.176-7.233 1.058-1.646 2.646-3.116 4.763-4.41 2.234-1.294 4.469-2.235 6.703-2.823 2.235-.705 4.175-.941 5.822-.705 1.764.117 2.646.764 2.646 1.94Zm.353 56.628c.353-.235 1.646 0 3.881.706 2.352.588 5.234 1.529 8.644 2.822 3.411 1.176 7.057 2.588 10.938 4.234a358.706 358.706 0 0 1 11.114 4.587c3.528 1.529 6.527 2.94 8.997 4.234 2.587 1.293 4.233 2.234 4.939 2.822.353.236.647 1.059.882 2.47.235 1.294.353 2.764.353 4.41.118 1.647 0 3.235-.353 4.764-.235 1.528-.706 2.646-1.411 3.351-.706.588-2.235 1.529-4.587 2.823s-5.116 2.705-8.291 4.234a464.253 464.253 0 0 1-10.232 4.763c-3.528 1.529-6.821 2.94-9.879 4.234-3.058 1.176-5.645 2.117-7.762 2.822-2.117.706-3.352.882-3.705.53-.705-.588-1.529-1.647-2.47-3.176-.823-1.529-.882-2.999-.176-4.41.235-.471 1.411-1.411 3.528-2.823 2.117-1.411 4.646-2.999 7.586-4.763a317.784 317.784 0 0 1 9.879-5.821 349.59 349.59 0 0 1 10.055-5.822 755.588 755.588 0 0 0-10.761-5.645 7007.26 7007.26 0 0 1-10.937-5.645 681.112 681.112 0 0 1-8.821-4.94c-2.352-1.411-3.646-2.411-3.881-2.999-.823-1.293-.823-2.764 0-4.41.941-1.647 1.764-2.764 2.47-3.352Z"/>
</svg>