<svg
  xmlns="http://www.w3.org/2000/svg"
  width="330"
  height="330"
>
  <path
    fill="#00C4FA"
    d="M123.168 324.046c1.924-.153 4.384.038 6.224-.439 1.191-.309 2.269-1.193 3.506-1.333 1.515-.172 3.101.082 4.64-.063 3.795-.359 7.574-1.138 11.352-1.657 4.495-.617 8.894-.999 13.379-1.827 5.739-1.06 11.513-2.071 17.23-3.23 19.124-3.878 38.872-9.084 58.507-8.108 2.511.125 5.206.207 7.659.774l.237.248c-1.137 1.532-5.018 2.921-6.811 3.794-14.119 6.872-27.923 11.816-43.422 14.699-1.893.352-3.765.847-5.672 1.121-4.245.61-15.499.385-18.535 1.975h-11.463c-2.603-1.358-7.147-1.174-10.088-1.423-5.741-.486-22.243-2.032-26.743-4.531ZM157.52 0h10.21l-.05.578c2.737 1.154 7.743.044 10.897.643 12.955.23 28.904 3.736 41.025 8.381-6.172.651-12.233-.643-18.382-.41-2.406.092-4.803.628-7.178.995q-8.185 1.308-16.347 2.757c-9.086 1.585-18.016 4.056-26.922 6.415-5.409 1.433-10.877 2.613-16.289 4.024-17.836 4.649-40.565 12.521-58.725 6.582-.855-.28-1.483-.438-1.9-1.265.12-.579.312-.896.714-1.332 2.325-2.522 6.313-4.258 9.29-5.94 15.476-8.749 31.907-14.595 49.323-17.971 5.661-1.098 10.959-2.038 16.748-2.233 1.979-.392 3.967-.117 5.964-.233 1.097-.064 2.132-.308 3.252-.335l.039-.103.563.099-.224-.299-1.767.03L157.52 0Zm0 0 .241.383 1.767-.03.224.299-.563-.1-.039.104c-1.12.027-2.155.271-3.252.335-1.997.116-3.985-.159-5.964.233l18.022-.028c3.509.011 7.128.223 10.621.025-3.154-.6-8.16.51-10.897-.643l.05-.578h-10.21Z"/><path fill="#1ADFFA" fill-opacity=".51" d="M157.52 0h10.21l-.05.578c2.737 1.154 7.743.044 10.897.643-3.493.198-7.112-.014-10.621-.025l-18.022.028c1.979-.392 3.967-.117 5.964-.233 1.097-.064 2.132-.308 3.252-.335l.039-.103.563.099-.224-.299-1.767.03L157.52 0Z"/><path fill="#00C4FA" d="M131.018 294.683c13.012-2.638 25.662-6.759 38.083-11.394 27.01-10.079 52.836-22.767 81.194-28.911 8.529-1.848 17.107-3.276 25.873-2.821 3.975.206 8.35.411 11.751 2.7 3.823 2.572 5.695 6.707 7.655 10.676-.442.994-.884 2.055-1.504 2.952-3.53 5.108-16.514 18.856-21.564 21.985-4.775-5.453-8.592-7.698-15.872-8.205-2.969-.207-5.942.207-8.888.526-14.987 1.622-27.272 6.569-41.317 11.471-10.077 3.516-20.403 7.123-30.694 9.971-7.852 2.174-15.749 3.64-23.73 5.222-5.197 1.03-10.38 2.185-15.618 2.999-3.186.495-6.405.754-9.592 1.247-5.329.823-23.162 3.105-27.84 2.171-5.155-1.029-13.772-6.047-18.326-8.939-2.653-1.686-8.356-4.614-10.158-6.891-.179-.226-.28-.456-.392-.718.127-.312.08-.415.42-.549 1.326-.521 4.399 1.322 5.885 1.556 2.388.376 5.142.153 7.56.146 5.307-.016 10.687.081 15.984-.302 3.428-.248 6.8-.823 10.207-1.236 4.811-.584 9.764-1.175 14.48-2.32 2.098-.109 4.413-.673 6.403-1.336ZM227.347 21.646c3.281-.335 6.588-.078 9.877.035 3.014.104 6.297-.172 9.232.525 5.289 1.256 16.251 9.692 20.984 13.427 1.019.804 2.314 1.799 2.468 3.143-1.375 1.172-10.168-.577-12.216-.805-3.313-.37-6.584-.104-9.904-.009-10.708.308-21.13 1.27-31.636 3.494-6.388 1.353-13.042 2.843-19.272 4.778-6.401 1.989-12.736 4.51-19.062 6.764-7.68 2.737-15.527 5.4-23.088 8.446-10.142 4.085-20.127 8.588-30.268 12.663-1.244.5-2.58.756-3.832 1.264-4.859 1.974-9.657 4.136-14.525 6.102-14.947 6.037-31.02 11.002-47.068 12.816-4.909.127-9.761.169-14.636-.577-6.975-1.068-15.033-5.15-19.217-10.982-.633-.882-1.052-1.648-.837-2.762 1.016-5.276 17.005-25.701 21.409-28.67 2.096.761 2.881 2.016 4.511 3.422 4.338 3.743 10.488 5.617 16.127 5.76 7.977.202 14.79-1.806 22.427-3.739q21.23-5.508 41.776-13.184c13.204-4.972 26.367-10.704 40.012-14.362 7.187-1.926 14.979-3.622 22.346-4.663 2.206-.311 4.445-.37 6.657-.652 3.709-.474 7.419-1.092 11.147-1.39 5.513-.44 11.053-.401 16.588-.844ZM295.038 179.286c3.402.424 7.062.528 10.388 1.305 5.138 1.201 11.436 4.946 14.679 9.1 2.85 3.651 6.055 8.309 5.427 13.145-.561 4.325-7.447 27.255-10.356 29.645-.072.059-.148.111-.222.167l-.36-.142c-.018-.069-.034-.139-.054-.207-.557-1.883-5.88-7.8-7.469-9.153-1.631-1.39-3.483-2.584-5.387-3.568-13.31-6.878-29.142-3.548-42.665.803-8.535 2.746-16.685 6.406-24.916 9.928l-25.179 10.706q-20.35 8.663-40.922 16.786c-5.962 2.365-11.869 4.982-17.903 7.148q-12.043 4.19-24.256 7.854c-8.141 2.521-16.188 5.18-24.538 6.969-2.538.544-5.148.806-7.711 1.211-2.387.377-4.754.904-7.15 1.22-5.706.753-11.875 1.044-17.625 1.04-5.732-.004-14.632-.066-19.817-2.717-5.398-2.76-17.788-19.058-20.88-24.464-.65-1.135-1.002-2.499-1.47-3.722 1.596.792 3.218 1.665 4.9 2.259 2.495.881 5.22 1.257 7.808 1.768 2.194.432 4.357 1.068 6.578 1.348 5.1.641 10.474.616 15.615.513 3.719-.075 7.493-.025 11.201-.306 9.756-.737 23.564-3.498 32.871-6.632 14.49-4.88 28.664-11.064 42.355-17.858 8.487-4.211 16.799-8.774 25.275-13.005 23.813-11.889 46.981-22.609 72.158-31.386 11.647-4.061 23.444-8.318 35.861-9.088 1.602.134 3.401-.143 5.019-.239q4.371-.24 8.745-.428ZM40.658 130.033c17.49.391 34.337-5.704 50.517-11.604q19.677-7.142 38.822-15.606c4.502-1.994 8.897-4.272 13.356-6.366 4.735-2.223 9.545-4.281 14.276-6.506 16.813-7.904 33.529-16.246 50.942-22.788 9.892-3.716 19.982-6.129 30.277-8.364 2.689-.584 5.527-.747 8.266-1.024 12.943-1.309 26.027-.992 38.734 1.954 2.585.6 5.278 1.01 7.531 2.501 4.833 3.198 16.402 22.953 18.902 28.602.622 1.405.962 2.82 1.277 4.314-8.621-3.871-18.025-10.111-27.388-11.73-7.981-1.38-16.652-1.803-24.687-.776-3.117.398-6.235 1.154-9.308 1.809-4.735 1.008-9.51 2.031-14.147 3.427-6.924 2.083-13.675 4.828-20.409 7.45-7.181 2.797-14.316 5.48-21.365 8.614-4.899 2.177-9.626 4.735-14.459 7.054-7.021 3.369-14.129 6.538-21.089 10.04-3.172 1.596-6.211 3.426-9.36 5.06l-27.561 14.017c-8.378 4.226-16.745 8.689-25.289 12.564-3.895 1.766-7.797 3.184-11.77 4.731-15.02 5.848-31.193 10.931-47.448 11.022-13.637.076-23.758-2.131-33.7-12.031-2.574-2.564-4.186-4.992-4.152-8.715.023-2.536.3-5.215.68-7.725.676-4.456 4.946-26.56 7.506-29.067 1.19.347 5.335 7.93 6.96 9.541 2.987 2.962 7.203 5.744 11.148 7.239 1.141.433 2.355.447 3.507.92l.212.089c2.725 1.192 6.263 1.389 9.22 1.354ZM2.577 183.859c5.327 7.602 15.205 12.385 23.598 15.663 4.777 1.865 10.333 2.497 15.437 2.608 22.56.493 43.658-9.253 63.724-18.443 3.435-1.574 6.946-2.979 10.365-4.589 8.522-4.015 16.99-8.415 25.352-12.76 4.858-2.524 9.586-5.332 14.442-7.88q20.646-10.77 41.533-21.064c7.089-3.506 14.138-7.272 21.382-10.44 25.417-11.114 56.565-21.13 84.4-14.625 3.373.788 6.894 2.17 10.113 3.457 10.382 4.148 12.874 8.819 14.47 19.461.529 3.525 1.09 7.073 1.458 10.618.263 2.533.017 5.346 1.054 7.714.03.069.063.138.095.206v3.686c-2.456-.998-4.899-3.701-7.044-5.326-6.533-4.952-15.682-8.446-23.787-9.489-25.179-3.241-47.784 7.089-69.57 18.169l-24.813 12.744q-21.764 11.209-43.758 21.96c-7.059 3.461-14.067 7.106-21.241 10.322-4.147 1.859-8.419 3.369-12.599 5.14-6.413 2.719-12.655 5.739-19.148 8.308-20.6 8.151-47.016 15.289-69.177 12.704-8.898-1.038-16.95-4.401-24.133-9.691-1.869-1.377-3.801-2.783-5.234-4.633-.706-.912-1.214-1.88-1.607-2.961-.893-2.458-1.31-5.115-1.953-7.649-1.4-5.507-3.131-11.165-3.671-16.838-.209-2.19.029-4.205.312-6.372Z"/>
</svg>