<svg viewBox="197.5063 334.2154 48.2376 48.8367" xmlns="http://www.w3.org/2000/svg">
  <ellipse class="ellipse-style" style="fill: rgb(216, 216, 216); stroke: rgb(0, 0, 0); transform-origin: 221.625px 358.634px;" cx="221.625" cy="358.634" rx="24" ry="23.998" transform="matrix(0.999848008156, 0.017452003434, -0.005102999974, 1.000062942505, 0.000158229929, -0.000209811027)"/>
  <path d="M 68.941 127.419 L 70.543 123.568 L 70.597 123.568 L 72.205 127.419 L 71.466 127.419 L 71.254 126.87 L 69.902 126.87 L 69.701 127.419 Z M 70.478 125.312 L 70.097 126.344 L 71.053 126.344 L 70.657 125.312 L 70.565 125.008 Z M 72.566 127.419 L 72.566 123.634 L 73.256 123.634 L 73.256 126.822 L 74.385 126.822 L 74.385 127.419 Z M 77.486 127.419 L 76.644 127.419 L 75.672 126.05 L 75.672 127.419 L 74.982 127.419 L 74.982 123.634 L 76.036 123.634 Q 76.422 123.634 76.726 123.746 Q 77.03 123.859 77.206 124.122 Q 77.383 124.386 77.383 124.839 Q 77.383 125.086 77.3 125.348 Q 77.217 125.61 77.026 125.817 Q 76.834 126.023 76.508 126.105 Z M 75.672 125.708 L 75.96 125.708 Q 76.199 125.708 76.36 125.596 Q 76.522 125.483 76.605 125.3 Q 76.688 125.116 76.688 124.904 Q 76.688 124.538 76.519 124.357 Q 76.351 124.177 75.944 124.177 L 75.672 124.177 Z" transform="matrix(4.62297, 0, 0, 5.983391, -117.028736, -393.454632)" style="paint-order: fill;"/>
  <style>
    path { fill: #000; }
    @media (prefers-color-scheme: dark) {
        path { fill: #FFF; }
        .ellipse-style { fill: #1d1c2d !important; }
    }
  </style>
</svg>